<?xml version="1.0" encoding="utf-8"?>
<!-- Generator: Adobe Illustrator 19.0.0, SVG Export Plug-In . SVG Version: 6.00 Build 0)  -->
<svg version="1.1" id="drum" xmlns="http://www.w3.org/2000/svg" xmlns:xlink="http://www.w3.org/1999/xlink" x="0px" y="0px"
	 viewBox="0 0 635.1 554.5" style="enable-background:new 0 0 635.1 554.5;" xml:space="preserve">
<style type="text/css">
	.st0{fill:#333333;}
</style>
<path id="XMLID_21_" class="st0" d="M573.5,249c0-0.9,0.4-1.8,0.2-2.7c0.2-1.4,0.7-2.9,0.7-4.3c0-48.3-115.9-87.5-258.9-87.5
	s-259,39.2-259,87.5c0,1.4-0.4,2.9-0.1,4.3c-0.2,0.9-0.8,1.8-0.8,2.7v217.5c0,0.1,0.5,0.1,0.5,0.2c0,0.1,0.2,0.2,0.2,0.3
	c0,21.3,22.3,40.9,60.3,56.1V417.9c0-15.6,13-28.1,28.6-28.2c15.6,0.1,27.4,12.6,27.4,28.2V538c0,0.7,0.2,1.4,0.1,2.1
	c33.3,7.4,71.9,12.3,113.9,13.8v-105c0-15.6,12.9-28.4,28.5-28.4s28.5,12.8,28.5,28.4v105c40-1.5,78.3-6.1,110.9-13.2
	c-0.7-2.5-0.9-5-0.9-7.7V412.9c0-15.6,13-28.1,28.6-28.2c15.6,0.1,27.4,12.6,27.4,28.2v111.6c40-15.4,64.3-35.5,64.3-57.6
	c0-0.1,0.1-0.2,0.1-0.3c0-0.1-0.5-0.1-0.5-0.2V249z M314.5,310.4c-129.8,0.1-235-29.4-235-65.9c0-36.5,105.2-66,235-66.1
	c129.8-0.1,235,29.4,235,65.9C549.5,280.8,444.3,310.4,314.5,310.4z"/>
<path id="stick-right" class="st0" d="M624.9,107.8L383.7,266c-10.4,6.8-24.6,3.9-31.4-6.5l-7.5-11.4c-6.8-10.4-3.9-24.6,6.5-31.4
	L592.5,58.4c10.4-6.8,24.6-3.9,31.4,6.5l7.5,11.4C638.2,86.8,635.3,100.9,624.9,107.8z"/>
<path id="stick-left" class="st0" d="M106.3,40.9l123.1,212c6.3,10.8,20.2,14.5,31,8.2l11.8-6.8c10.8-6.3,14.5-20.2,8.2-31
	l-123.1-212c-6.3-10.8-20.2-14.5-31-8.2l-11.8,6.8C103.8,16.2,100.1,30.1,106.3,40.9z"/>
<g id="sound-wave">
	<g id="outer-wave">
		<path id="XMLID_7_" class="st0" d="M13.5,238.3c0-25.5,20.8-49.1,56.2-68.3C26.1,189,0,213.1,0,239.5c0,31.5,37.4,59.9,97.4,80.1
			C45.5,298.4,13.5,269.8,13.5,238.3z"/>
		<path id="XMLID_8_" class="st0" d="M629.5,239.5c0-25.8-25.1-49.6-67.2-68.4c34.1,19,54.2,42.2,54.2,67.2
			c0,31-30.8,59.2-81.2,80.2C593.5,298.4,629.5,270.4,629.5,239.5z"/>
	</g>
	<g id="inner-wave">
		<path id="XMLID_13_" class="st0" d="M40.2,236.9c0-23,18.8-44.2,50.7-61.6C51.6,192.5,28,214.3,28,238c0,28.4,33.7,54,87.8,72.2
			C69,291.1,40.2,265.3,40.2,236.9z"/>
		<path id="XMLID_11_" class="st0" d="M595.5,238c0-23.3-22.6-44.7-60.6-61.6c30.8,17.2,48.8,38,48.8,60.6
			c0,27.9-27.8,53.4-73.2,72.3C563,291.1,595.5,265.9,595.5,238z"/>
	</g>
</g>
</svg>
