<?xml version="1.0" encoding="utf-8"?>
<!-- Generator: Adobe Illustrator 19.0.0, SVG Export Plug-In . SVG Version: 6.00 Build 0)  -->
<svg version="1.1" id="drummer-icon" xmlns="http://www.w3.org/2000/svg" xmlns:xlink="http://www.w3.org/1999/xlink" x="0px"
	 y="0px" viewBox="0 0 30 30" style="enable-background:new 0 0 30 30;" xml:space="preserve">
<style type="text/css">
	.st0{fill:#1C1C1C;}
</style>
<g id="drummer">
	<path id="XMLID_431_" class="st0" d="M16.8,16c0,0.3-0.1,0.5-0.4,0.6c-0.1,0-0.2,0.2-0.3,0.2C16.1,16.9,16,17,15.9,17
		c0-0.1-0.1-0.1-0.1-0.2c-0.2-0.1-0.3-0.2-0.5-0.3c-0.1,0-0.1-0.1-0.2-0.1c0-0.1,0-0.2,0-0.3c-0.1-0.4-0.1-0.8-0.2-1.1
		c-0.1-0.3-0.2-0.4-0.5-0.4c-0.3,0-0.7,0-1-0.1c0-0.4-0.1-0.8-0.1-1.1c0-0.5-0.1-0.9-0.1-1.4c0-0.2-0.4-0.5-0.6-0.5
		c-0.2,0-0.4,0-0.6,0c-0.2,0-0.4-0.1-0.3-0.3c0-0.3-0.2-0.4-0.4-0.6c-0.6-0.4-1.1-0.9-1.7-1.4C9.5,9,9.5,8.8,9.6,8.6
		c0.5-1.1,1.2-2,1.9-2.9c0.2-0.2,0.4-0.5,0.5-0.6c-0.1-0.2-0.1-0.3-0.2-0.4c0.1,0,0.2-0.1,0.3-0.1c0.1-0.1,0.3-0.1,0.4-0.2
		c0.2-0.2,0.3-0.3,0.5-0.1c0.1,0.1,0.3,0.1,0.5,0.1c0.3,0,0.4,0.1,0.5,0.4C15,4.8,16,4.9,17,5C17,5,17.1,5,17.2,5
		c0.1,0,0.1,0,0.2,0.1c0,0.1,0,0.1,0,0.2c0,0-0.1,0.1-0.2,0.1c-0.8-0.1-1.6-0.1-2.4-0.2c-0.1,0-0.2,0-0.3,0
		c-0.4-0.1-0.7,0.1-0.9,0.4c-0.2,0.2-0.4,0.4-0.7,0.3c-0.1,0-0.3,0.1-0.4,0.2c-0.4,0.6-0.7,1.2-1.1,1.9c-0.1,0.3-0.2,0.6-0.4,0.8
		c1.1,0.7,2.3,1,3.7,1.1c-0.1-0.3-0.2-0.6-0.3-0.8c-0.3-0.8-0.5-1.7-0.1-2.5c0.1-0.3,0.3-0.5,0.6-0.6c0.4-0.1,0.8-0.2,1.2-0.2
		c0.4,0,0.8,0.3,1,0.7c0.4,0.8,0.4,1.5,0,2.3C17.1,9,17,9.2,16.9,9.5c0,0,0,0,0.1,0c0.4-0.1,0.7-0.3,1.1-0.4
		c0.4-0.1,0.8-0.2,1.2-0.2c0.7,0,1.3-0.3,1.9-0.6c0.1,0,0.1-0.1,0.2-0.1c0.3-0.5,0.6-0.9,0.9-1.4c0.2-0.3,0.2-0.5,0-0.8
		C22,6,22,5.8,22.1,5.5c0.1-0.2,0-0.4-0.2-0.6c-1-1.2-2-2.4-2.9-3.5c-0.1-0.1-0.2-0.3-0.3-0.4c-0.1-0.1-0.2-0.2-0.3-0.2
		c-0.2-0.1-0.2-0.2-0.1-0.5c0.1,0,0.2,0,0.2,0c0.5,0.9,1.2,1.4,1.8,2.2C21,3.3,21.6,4,22.2,4.8c0,0,0.1,0.1,0.1,0.1
		c0.2-0.2,0.4-0.3,0.5,0.1c0,0.1,0.2,0.2,0.4,0.2c0.4,0.2,0.5,0.6,0.5,1c0,0.2,0.2,0.4,0.2,0.6c0,0.1,0,0.2-0.1,0.3
		c-0.1,0-0.2-0.1-0.3-0.1c0,0-0.1-0.1-0.1-0.1c-0.1,0.4-0.2,0.7-0.3,1C23,8,23,8.1,23,8.2c-0.3,0.8-0.7,1.5-1.7,1.8
		c-0.3,0.1-0.6,0.3-0.9,0.4c-0.2,0.1-0.3,0.2-0.3,0.4c0,0.3-0.1,0.4-0.3,0.5c-0.3,0.1-0.6,0.2-0.8,0.4c-0.1,0.1-0.2,0.1-0.2,0.3
		c0,0.9-0.1,1.9-0.1,2.8c-0.4,0.1-0.7,0.1-1.1,0.2c-0.4,0.1-0.6,0.3-0.6,0.6c0,0-0.1,0-0.1,0.1c-0.1,0.2-0.1,0.3-0.2,0.5
		C16.7,16,16.7,16,16.8,16z"/>
	<path id="XMLID_422_" class="st0" d="M4.9,24.9c0-0.2-0.1-0.3,0.1-0.5c0.1-0.1,0.1-0.3,0.1-0.5c0-0.2,0.1-0.3-0.2-0.4
		c-0.2-0.1-0.1-0.7,0.1-0.8c0.1,0,0.1-0.1,0.1-0.2c0-0.7,0-1.3,0-2c-0.3-0.1-0.4-0.3-0.2-0.6c0-0.1,0-0.2,0-0.4
		c0-0.3,0.1-0.4,0.4-0.4c1.7,0,3.4,0,5.1,0c0.3,0,0.4,0.1,0.4,0.4c0,0.1,0.1,0.3,0.1,0.4c0.1,0.2,0,0.4-0.3,0.5c0,0.6,0,1.3,0,1.9
		c0,0.1,0,0.1,0,0.2c0.4,0.1,0.1,0.4,0.2,0.7c0,0,0,0.1,0,0.1c-0.4,0.2-0.2,0.5-0.2,0.8c0,0.2,0.2,0.4,0.2,0.5
		c0,0.2-0.2,0.3-0.2,0.5c0,0.3,0,0.6,0,0.9c0,0.2-0.1,0.5-0.1,0.7c0,0-0.1,0-0.1,0c0-0.2-0.1-0.3-0.1-0.5c0-0.4,0-0.9,0-1.4
		c-0.5,0-0.9,0-1.3,0c0-0.4,0-0.8,0-1.2c0-0.4,0-0.7,0-1.1c0-0.1,0-0.2,0-0.2c-0.1-0.1-0.2-0.2-0.3-0.3c-0.1,0.1-0.2,0.2-0.2,0.3
		c0,0.7-0.1,1.5-0.1,2.2c0,0.1,0,0.2,0,0.3c-0.3,0-0.5,0-0.7,0c0,0.5,0,0.9,0,1.3c0,0.2,0,0.4-0.1,0.6c0,0.3-0.1,0.6,0,0.9
		c0,0.2,0.2,0.3,0.4,0.4c0.1,0.1,0.1,0.2,0.2,0.3c0,0.1,0,0.3-0.2,0.3c-0.2,0-0.4,0.1-0.4-0.2c0-0.1,0-0.1-0.1-0.2
		c-0.6-0.6-1.2-1.2-1.9-1.8c-0.4,0.3-0.9,0.6-1.5,1c-0.1,0-0.1,0.1-0.1,0.2c0,0.6-0.1,1.2-0.1,1.7c0,0.3-0.1,0.3-0.4,0.3
		c-0.2,0-0.3-0.1-0.3-0.3c0.1-0.6,0.2-1.1,0.2-1.7c0-0.2,0-0.3-0.2-0.4C3,27.2,2.7,27,2.5,26.8c-0.6,0.6-1.2,1.2-1.8,1.7
		c0,0-0.1,0.1-0.1,0.1C0.5,29,0.4,29,0,28.9c0-0.1,0-0.3,0-0.4c1.2-1.3,2.5-2.5,3.7-3.8C3.9,24.5,4,24.3,4,24c0-2.8,0-5.5,0-8.3
		c0-0.1,0-0.1,0-0.2c-0.1,0-0.2,0.1-0.2,0.1c-0.5,0.3-1.1,0.7-1.6,1c-0.2,0.1-0.3,0.2-0.5,0c-0.1-0.2,0-0.3,0.2-0.4
		c0.6-0.4,1.3-0.8,1.9-1.2c0.2-0.1,0.3-0.2,0.4-0.4c0,0,0.1-0.1,0.1-0.1C5,14.4,5.4,13.9,6,13.6c0.1,0,0.2-0.1,0.2-0.1
		c0.4-0.3,0.4-0.3,0.9,0.1c-0.5,0.3-0.9,0.6-1.4,0.8c-0.2,0.1-0.4,0.2-0.5,0.3C5,14.8,5,14.9,4.9,15c-0.1,0.1-0.3,0.2-0.5,0.4
		c0,0.4,0,0.9,0,1.4c0.1,0,0.2-0.1,0.4-0.1c0.1,0,0.3,0,0.3,0.1c0.1,0.1,0,0.3,0,0.5c-0.1,0-0.2,0-0.3,0c0,0,0,0,0,0
		c-0.1,0.1-0.3,0.1-0.4,0.2c0,1.3,0,2.6,0,4c0.1,0,0.2,0,0.3,0c0.1,0.4,0.1,0.4-0.3,0.4c0,0.9,0,1.8,0,2.7c0,0.1,0.2,0.3,0.3,0.4
		C4.8,25,5,25.1,5.1,25.3c0,0,0.1,0,0.1-0.1C5.1,25.1,5,25,4.9,24.9z M7.1,27.2c0.3-0.7,0.1-1.5,0.2-2.2c-0.6,0-1.1,0-1.8,0
		c0,0.3,0,0.6,0.1,0.8C6.1,26.3,6.6,26.8,7.1,27.2z M4.1,27.1c0.4-0.3,0.8-0.5,1.3-0.8c-0.4-0.3-0.8-0.6-1.1-0.9
		C4.2,25.8,4.1,26.4,4.1,27.1z M2.7,26.4c0.3,0.2,0.6,0.4,0.8,0.7c0-0.6,0.1-1.1,0.1-1.6C3.3,25.8,3,26.1,2.7,26.4z M7.1,19.7
		c0,0.2,0.1,0.5,0.1,0.7c0,0.1,0,0.2,0.1,0.4c0,0.1,0.1,0.2,0.1,0.3c0.1-0.1,0.2-0.1,0.2-0.2c0-0.1,0-0.3-0.1-0.4
		c0-0.1-0.1-0.1-0.1-0.2c0.1,0,0.2-0.1,0.2-0.1c0.1-0.1,0.2-0.1,0.2-0.2c0-0.1-0.1-0.2-0.2-0.2C7.5,19.6,7.3,19.7,7.1,19.7z
		 M7.6,24.5c0-0.3,0-0.5-0.1-0.8c0-0.2-0.2-0.3-0.3-0.2c-0.1,0.2-0.1,0.4-0.2,0.6c-0.1,0.2,0,0.3,0.2,0.3
		C7.4,24.6,7.5,24.5,7.6,24.5z M9.6,23.7c0,0.2,0.1,0.4,0.1,0.7c0,0.1,0.1,0.2,0.2,0.2c0.1,0,0.2-0.1,0.2-0.2
		C10.2,24.1,9.9,23.7,9.6,23.7z M6.9,22.4C7,22.5,7,22.6,7.1,22.6c0.1,0.1,0.3,0.2,0.5,0.2c0.1,0,0.3,0.1,0.3-0.1
		c0-0.2,0-0.3-0.2-0.3C7.4,22.4,7.2,22.4,6.9,22.4z"/>
	<path id="XMLID_419_" class="st0" d="M24.7,28.5c0-0.8,0-1.6,0-2.5c0-0.1,0-0.2-0.1-0.4c-0.1,0.1-0.2,0.3-0.3,0.4
		c-0.6,1-1.2,1.9-1.7,2.9c-0.1,0.1-0.1,0.3-0.1,0.5c0,0.2-0.1,0.3-0.3,0.3c-0.5,0-0.5-0.2-0.3-0.6c0.9-1.4,1.7-2.8,2.6-4.3
		c0.1-0.1,0.1-0.3,0.1-0.5c0-0.8,0-1.6,0.1-2.3c0.1,0,0.2,0,0.2,0c0,0.3-0.1,0.5-0.1,0.8c0,0.2,0,0.5,0,0.7c0,0.4,0,0.4,0.4,0.4
		c0,0.1,0,0.1,0,0.2c-0.1,0.5,0.2,0.9,0.5,1.2c1.3,1.2,2.5,2.4,3.8,3.5c0.1,0.1,0.3,0.3,0.4,0.4c0,0.1,0,0.2,0,0.3
		c-0.2,0-0.4,0-0.7-0.2c-1.3-1.3-2.8-2.5-4.1-3.8c0,0,0,0-0.1,0c0,0.3,0,0.5,0,0.8c0,0.8,0,1.6,0,2.3c0,0.2,0,0.4-0.2,0.4
		C24.6,29,24.7,28.8,24.7,28.5C24.7,28.5,24.7,28.5,24.7,28.5z M26.1,26.1C26.1,26.1,26.1,26.1,26.1,26.1
		C26.1,26.1,26.1,26.1,26.1,26.1C26.1,26,26.1,26,26.1,26.1C26.1,26,26,26,26.1,26.1C26.1,26,26.1,26,26.1,26.1z"/>
	<path id="XMLID_418_" class="st0" d="M7.1,13.5c0.5-0.4,1.1-0.8,1.6-1.1c0.2-0.1,0.2-0.3,0.2-0.5c-0.1-0.2-0.2-0.3-0.4-0.2
		c-0.3,0-0.4,0.2-0.2,0.5c0,0.1,0,0.2,0.1,0.3c-0.1,0-0.2,0-0.3,0c-0.2-0.1-0.3-0.1-0.4,0.1c0,0,0,0.1-0.1,0.1
		C7.2,12.8,7,12.9,6.7,13c-0.1,0-0.2,0.1-0.3,0c-0.7-0.5-1.4-1.1-1.8-2c-0.1-0.2-0.1-0.4-0.2-0.5c-0.1-0.5,0.1-1,0.6-1.1
		c0.6-0.2,1.2-0.1,1.8,0c1.8,0.5,3.3,1.4,4.4,2.8c0.2,0.2,0.4,0.5,0.5,0.8c0.4,0.9-0.1,1.5-1,1.6C9.5,14.7,8.3,14.2,7.1,13.5z"/>
	<path id="XMLID_417_" class="st0" d="M24.7,14.7c-0.8,0.1-1.6,0.1-2.4-0.1c-0.8-0.3-1.3-1-1.2-1.7c0.1-0.5,0.4-1,0.8-1.3
		c1.4-1.2,3.1-1.6,4.9-1.2c1.6,0.4,2,1.8,0.8,3c-0.6,0.7-1.4,1-2.3,1.2c0-0.4-0.1-0.8-0.1-1.1c0-0.2-0.1-0.3-0.3-0.4
		c-0.2-0.1-0.2-0.2,0-0.3c0.1-0.1,0.2-0.7,0-0.7c-0.2,0-0.5,0-0.7,0.1c-0.2,0.2,0,0.6,0.3,0.7c0,0.3,0.1,0.6-0.3,0.7
		c0.1,0.1,0.3,0.2,0.4,0.4C24.7,14.2,24.7,14.4,24.7,14.7C24.7,14.7,24.7,14.7,24.7,14.7z"/>
	<path id="XMLID_414_" class="st0" d="M16.5,19.2c0.9,0.1,1.7,0.4,2.4,1c0,0,0.1,0.1,0.2,0.1c0.1,0,0.3,0,0.3,0
		c0.2,0.1,0.3,0.3,0.4,0.5c0,0.1,0,0.2,0,0.4c0.5,0.6,0.8,1.3,0.9,2.1c0,0.1,0.1,0.1,0.1,0.2c0.3,0.2,0.3,0.8,0,1
		c0,0-0.1,0.1-0.1,0.2c0,0.1,0,0.3-0.1,0.4c-0.2,0.4-0.1,0.8,0.1,1.2c0.3,0.7,0.5,1.4,0.8,2.1c0.1,0.2,0.3,0.5,0.4,0.7
		c0,0.2,0,0.2-0.2,0.3c-0.5,0.1-0.5,0.1-0.5-0.4c0-0.3-0.1-0.5-0.2-0.8c-0.2-0.7-0.5-1.3-0.8-2c-0.1,0.2-0.2,0.4-0.4,0.5
		c0,0,0,0.1,0,0.1c0.2,0.4-0.2,0.5-0.4,0.8c0,0-0.1,0.1-0.2,0.1c-0.2-0.1-0.4,0-0.5,0.2c-0.6,0.4-1.3,0.7-2,0.8
		c-0.1,0-0.2,0.1-0.2,0.2c-0.2,0.3-0.4,0.1-0.7,0.2c-0.2,0-0.3-0.1-0.4-0.3c-0.9-0.1-1.7-0.4-2.4-1c0,0-0.1-0.1-0.2-0.1
		c-0.1,0-0.3,0-0.3,0c-0.2-0.1-0.3-0.3-0.4-0.5c0,0,0-0.1,0-0.1c0.2-0.4-0.3-0.6-0.3-0.9c-0.3,1-0.9,1.9-1,3c0,0.3-0.1,0.4-0.4,0.3
		c-0.1,0-0.2,0-0.3-0.1c-0.1,0-0.2-0.1-0.2-0.1c0.1-0.3,0.1-0.5,0.2-0.8c0-0.1,0.2-0.2,0.2-0.3c0.3-0.9,0.7-1.8,1-2.7
		c0.1-0.3-0.1-0.6-0.1-1c0-0.1-0.2-0.1-0.2-0.2c-0.1-0.2,0-0.3-0.1-0.5c0-0.2,0-0.3,0.3-0.4c0,0,0.1-0.1,0.1-0.2
		c0.1-0.7,0.4-1.4,0.8-2.1c0,0,0-0.1,0-0.1c0-0.1-0.1-0.3,0-0.3c0.1-0.2,0.3-0.3,0.5-0.5c0,0,0,0,0.1,0c0.3,0.2,0.5-0.1,0.7-0.3
		c0.6-0.4,1.2-0.6,1.8-0.7c0.1,0,0.2-0.1,0.2-0.1c0.2-0.3,0.5-0.2,0.7-0.2C16.2,18.9,16.4,19.1,16.5,19.2
		C16.5,19.2,16.5,19.2,16.5,19.2z M15.9,19.8c-2.3,0-4.1,1.9-4.1,4.1c0,2.3,1.9,4.1,4.1,4.1c2.3,0,4.1-1.9,4.1-4.1
		C20.1,21.6,18.2,19.8,15.9,19.8z"/>
	<path id="XMLID_408_" class="st0" d="M11.8,18.9c-0.1,0-0.2,0-0.3,0c-0.1,0-0.1,0-0.2,0c-0.1,0-0.2,0-0.2,0c0,0-0.1,0-0.1,0
		c-0.2,0-0.5,0-0.7,0c-0.3,0-0.4-0.2-0.3-0.5c0-0.1,0.1-0.1,0.1-0.2c0-0.1,0-0.1,0-0.2c0-0.4,0-0.8,0-1.2c0-0.1,0-0.1,0-0.2
		c-0.1-0.2-0.3-0.3-0.2-0.6c0.3,0,0.4-0.1,0.4-0.4c0-0.2,0-0.4,0-0.6c0.1,0,0.1,0,0.2,0c0,0,0,0.1,0.1,0.1c0,0,0-0.1,0.1-0.1
		c1.3,0,2.5,0,3.8,0c0,0,0.1,0,0.1,0c0,0.1,0.1,0.1,0.1,0.2c0.1,0.3,0.1,0.5,0.2,0.8c0,0.1,0,0.2,0,0.3c0,0.1-0.1,0.1-0.1,0.2
		c0.1,0.1,0.1,0.1,0.2,0.2c0,0,0.1,0,0.1,0c0,0,0,0,0,0c0.1,0.1,0.2,0.1,0.3,0.2c0,0,0,0,0.1,0c0.1,0,0.1,0.1,0.2,0.1
		c0,0,0.1,0.1,0.1,0.1c0,0.5,0.1,1,0,1.5c0,0.1-0.2,0.3-0.4,0.4c0-0.4,0-0.7,0-1.1c-0.1,0-0.3-0.1-0.4-0.1c-0.1,0-0.1-0.1-0.2-0.1
		c0,0.1,0,0.1,0,0.2c0,0,0,0.1,0,0.1c0,0,0,0.1,0,0.1c0,0.1,0,0.1,0,0.2c0,0,0.1,0.1,0.1,0.1c0,0.1,0,0.2,0,0.3c0,0-0.1,0.1-0.1,0.1
		c-0.6,0-1.2,0-1.8,0C12.4,18.9,12.1,18.9,11.8,18.9C11.8,18.9,11.8,18.9,11.8,18.9z M11.3,16.9c0-0.1,0-0.2,0-0.3
		c0-0.2-0.1-0.4,0.1-0.6c0,0,0-0.2,0-0.2c-0.1-0.1-0.3-0.1-0.4,0.1C10.8,16.2,10.9,16.5,11.3,16.9z M13.3,16.8
		C13.3,16.8,13.3,16.9,13.3,16.8c0.2-0.1,0.3-0.3,0.4-0.4c0.1-0.3,0-0.7-0.3-0.7c-0.1,0-0.2,0-0.2,0.1c0,0,0,0.2,0,0.2
		c0.2,0.1,0.1,0.3,0.1,0.4C13.3,16.5,13.3,16.7,13.3,16.8z M13.3,18.4C13.3,18.4,13.3,18.5,13.3,18.4c0.2-0.2,0.3-0.3,0.4-0.5
		c0-0.2-0.1-0.4-0.2-0.6c0,0-0.2,0-0.3,0c0,0,0,0.2,0,0.2c0.2,0.1,0.1,0.2,0.1,0.4C13.3,18.1,13.3,18.3,13.3,18.4z M11.3,18.5
		c0-0.2,0-0.3,0-0.4c0-0.2-0.1-0.4,0.1-0.5c0,0,0-0.2,0-0.2c-0.1-0.1-0.3-0.1-0.4,0.1C10.8,17.7,10.9,18,11.3,18.5z"/>
	<path id="XMLID_404_" class="st0" d="M17.5,17.8c-0.2,0.1-0.4,0.1-0.6,0.2c0,0.3,0,0.6,0,1c-0.3,0-0.4-0.2-0.4-0.4
		c0-0.4,0-0.8,0-1.2c0-0.2,0.2-0.4,0.4-0.5c0.2-0.1,0.4-0.2,0.6-0.3c-0.2-0.3-0.3-0.5-0.1-0.7c0.1-0.1,0-0.2,0-0.4
		c0-0.2,0.1-0.3,0.3-0.3c0.9-0.1,1.9-0.1,2.8,0c0.4,0,0.4,0.1,0.4,0.4c0,0.1,0.1,0.2,0.1,0.3c0,0.1,0.1,0.3,0,0.4
		c-0.2,0.3-0.1,0.6-0.1,0.8c0,0.3,0,0.5,0,0.8c0,0.1,0,0.2,0.1,0.3c0.1,0.3,0,0.5-0.3,0.5c-1.1,0.1-2.1,0.2-3.2,0
		c-0.2,0-0.3-0.2-0.2-0.4C17.3,18.2,17.4,18,17.5,17.8z M18.4,16.9c0-0.1,0-0.1,0-0.1c0-0.3-0.2-0.6,0.1-0.8c0,0,0-0.1-0.1-0.2
		c-0.2-0.1-0.3-0.1-0.4,0.1C17.9,16.2,18,16.6,18.4,16.9z M18.5,18.6c0-0.2,0-0.3,0-0.3c0-0.2-0.1-0.4,0.1-0.6c0,0,0-0.2-0.1-0.2
		c-0.2-0.1-0.3,0-0.4,0.2C17.9,17.8,18,18.2,18.5,18.6z"/>
	<path id="XMLID_403_" class="st0" d="M23.9,23.9c0.1,0.2,0.3,0.3,0.4,0.5c0.1,0.1,0,0.3,0,0.6c-0.2-0.2-0.4-0.3-0.6-0.5
		c0,0.6,0.1,1.2-0.5,1.7c0-0.5,0-1.1,0-1.6c0,0,0,0-0.1,0c-0.6,0.8-1.3,1.5-1.9,2.3c-0.2-0.3-0.3-0.6,0-1c0.7-0.8,1.3-1.7,1.9-2.6
		c0.1,0.1,0.2,0.2,0.3,0.3C23.6,23.7,23.7,23.8,23.9,23.9z"/>
	<path id="XMLID_402_" class="st0" d="M23.9,23.9c-0.1-0.1-0.2-0.2-0.3-0.3c-0.1-0.1-0.2-0.2-0.3-0.3c0-0.1,0-0.1,0-0.2
		c0,0,0,0,0-0.1c0-0.7,0-1.4,0-2.1c0-0.3-0.1-0.4-0.4-0.4c-0.1,0-0.1-0.1-0.2-0.1c0,0,0.1-0.1,0.1-0.1c0.2,0,0.3-0.2,0.4-0.2
		c0,0,0,0,0-0.1c0-0.5,0-1.1,0-1.6c0-0.1,0-0.2,0-0.3c-0.1-0.2-0.2-0.3-0.4-0.5c0.4,0,0.6,0,0.9,0c0,0,0.1,0.1,0.1,0.1
		c0,0,0,0.1,0,0.1c-0.3,0.1-0.2,0.3-0.2,0.5c0,0.6,0,1.3,0,1.9c0,0,0,0,0,0.1c0,0.1,0,0.1,0,0.2c0,0,0,0,0,0.1c0,0.8,0,1.6,0,2.3
		C23.7,23.3,23.7,23.6,23.9,23.9z"/>
	<path id="XMLID_401_" class="st0" d="M21.2,17.4c0-0.2,0-0.3,0-0.5c0.7-0.1,1.4-0.2,2.1-0.3c0-0.3,0.1-0.6,0.1-1c0,0,0.1,0,0.1,0
		c0.1,0.3,0.1,0.7,0.2,1c0.7,0.1,0.7,0.1,0.6,0.8C23.3,17.4,22.3,17.4,21.2,17.4z"/>
	<path id="XMLID_400_" class="st0" d="M25.2,23.9c-0.4,0-0.4,0-0.4-0.4c0-0.2,0-0.5,0-0.7c0-0.3,0.1-0.5,0.1-0.8c0,0-0.1,0-0.2,0
		c0,0,0,0,0,0c0.3,0,0.3-0.2,0.2-0.4c-0.1,0-0.1-0.1-0.2-0.1c0-0.1,0-0.2,0-0.2c0-0.1,0.1-0.2,0.1-0.2c0-1.2,0-2.4,0-3.6
		c0-0.1-0.1-0.2-0.1-0.2c0-0.4,0-0.9,0-1.3c0.2,0,0.3,0,0.5,0c0,0.2,0,0.5,0,0.7c0,0-0.1,0-0.1,0c0,0,0.1,0,0.1,0.1c0,0,0,0.1,0,0.1
		c0,0.1-0.1,0.2-0.1,0.3c0,0,0.1,0.1,0.1,0.1c0,0,0,0.1,0,0.1c0,0-0.1,0-0.1,0.1c0,0.1,0,0.3,0,0.4c0,1.4,0,2.7-0.1,4.1
		c0,0.1,0,0.2,0.1,0.3c0,0.4,0,0.9,0,1.3c-0.1,0.1-0.2,0.2,0,0.3C25.1,23.7,25.2,23.8,25.2,23.9C25.2,23.8,25.2,23.8,25.2,23.9z"/>
	<path id="XMLID_399_" class="st0" d="M8.4,25.1c0.1,0,0.3,0,0.4,0c0,0.1,0,0.3,0,0.4c0,0.7,0,1.5,0.1,2.2c0,0.2,0.1,0.4,0.2,0.7
		c0,0.2-0.1,0.3-0.3,0.2c-0.2,0-0.3,0-0.3-0.2c0-0.6-0.1-1.1-0.1-1.7C8.4,26.2,8.4,25.6,8.4,25.1z"/>
	<path id="XMLID_398_" class="st0" d="M20.2,27.5c0.1,0.1,0.1,0.3,0.1,0.4c0,0.1,0,0.3,0,0.3c-0.2,0.2-0.4,0.5-0.3,0.8
		c0,0.2-0.2,0.1-0.3,0.1c-0.1,0-0.3,0-0.2-0.3C19.6,28.3,19.7,27.8,20.2,27.5z"/>
	<path id="XMLID_397_" class="st0" d="M25.1,17.3C25.1,17.3,25.2,17.3,25.1,17.3c0.1,1,0.1,2,0.1,3.1c0,1.1,0,2.3,0,3.4
		c0,0-0.1-0.1-0.1-0.1c0-0.1,0-0.2,0-0.3c0-0.4,0-0.9,0-1.3c0-0.1,0-0.2-0.1-0.3c0-1.4,0-2.7,0.1-4.1C25.1,17.6,25.1,17.5,25.1,17.3
		z"/>
	<path id="XMLID_396_" class="st0" d="M23.8,27.8c0,0.5,0,1,0,1.4c0,0.1-0.1,0.2-0.1,0.2c-0.2,0-0.3,0-0.5,0c0,0,0-0.1,0-0.2
		c0-0.3,0-0.5,0.1-0.8c0.1-0.2,0.2-0.4,0.4-0.6C23.7,27.8,23.8,27.8,23.8,27.8z"/>
	<path id="XMLID_394_" class="st0" d="M24.7,17.1c0,0.1,0.1,0.2,0.1,0.2c0,1.2,0,2.4,0,3.6c0,0.1-0.1,0.2-0.1,0.2
		C24.7,19.8,24.7,18.5,24.7,17.1z"/>
	<path id="XMLID_393_" class="st0" d="M25.2,15.8c-0.2,0-0.3,0-0.5,0c0-0.4,0-0.8,0-1.1c0,0,0,0,0,0c0.2,0,0.3,0,0.5,0
		c0,0.1,0,0.2,0,0.3c-0.1-0.1-0.1-0.1-0.2-0.2c0,0.1-0.1,0.3-0.1,0.4c0,0,0,0.1,0,0.1c0,0,0,0,0,0c0,0,0,0,0-0.1
		c0.1,0.1,0.2,0.1,0.3,0.2C25.2,15.6,25.2,15.7,25.2,15.8z"/>
	<path id="XMLID_392_" class="st0" d="M25.5,17.4c0-0.2,0-0.4,0-0.6c0.3,0.1,0.6,0.2,0.8,0.3c0,0,0,0.1,0,0.1
		C26,17.3,25.8,17.4,25.5,17.4z"/>
	<path id="XMLID_391_" class="st0" d="M24.9,21.5c0.1,0.2,0.1,0.4-0.2,0.4c-0.2,0-0.4-0.1-0.6-0.1c0,0-0.1-0.1-0.1-0.1
		c0,0,0.1-0.1,0.1-0.1c0.2-0.1,0.4-0.1,0.5-0.1C24.8,21.5,24.8,21.5,24.9,21.5z"/>
	<path id="XMLID_388_" class="st0" d="M10.2,15.1c0,0.2,0,0.4,0,0.6c0,0.3-0.1,0.4-0.4,0.4c0-0.2,0.1-0.5,0.1-0.7
		C9.9,15.1,10,15,10.2,15.1z M10,15.7C10,15.8,10.1,15.8,10,15.7c0.1-0.2,0.1-0.4,0.1-0.5c0,0,0,0-0.1,0C10,15.4,10,15.6,10,15.7z"
		/>
	<path id="XMLID_386_" class="st0" d="M25.2,15.6c-0.1-0.1-0.2-0.1-0.3-0.2c0,0,0,0,0-0.1c0-0.1,0.1-0.3,0.1-0.4
		c0.1,0.1,0.1,0.1,0.2,0.2C25.2,15.2,25.2,15.4,25.2,15.6z"/>
	<path id="XMLID_382_" class="st0" d="M16.8,16c-0.1,0-0.1,0-0.2,0c0.1-0.2,0.1-0.3,0.2-0.5c0,0,0.1,0,0.1-0.1
		C16.9,15.6,16.8,15.8,16.8,16z"/>
	<path id="XMLID_371_" class="st0" d="M14.5,17.9c0-0.1,0-0.1,0-0.2c0.1,0,0.1,0.1,0.2,0.1C14.6,17.8,14.5,17.8,14.5,17.9z"/>
	<path id="XMLID_368_" class="st0" d="M25.1,17c0-0.1,0.1-0.2,0.1-0.3C25.2,16.8,25.2,16.9,25.1,17C25.2,17,25.2,17,25.1,17
		C25.1,17,25.1,17,25.1,17z"/>
	<path id="XMLID_363_" class="st0" d="M24.9,21.5c-0.1,0-0.1,0-0.2,0c0,0,0-0.1,0-0.1C24.8,21.4,24.8,21.5,24.9,21.5z"/>
	<path id="XMLID_360_" class="st0" d="M11.3,18.9c0.1,0,0.1,0,0.2,0C11.4,18.9,11.3,18.9,11.3,18.9z"/>
	<path id="XMLID_357_" class="st0" d="M10.5,15.1c0,0,0,0.1-0.1,0.1c0,0,0-0.1-0.1-0.1C10.4,15.1,10.5,15.1,10.5,15.1z"/>
	<path id="XMLID_356_" class="st0" d="M25.2,16.6c0,0-0.1,0-0.1-0.1c0,0,0.1,0,0.1,0C25.2,16.6,25.2,16.6,25.2,16.6z"/>
	<path id="XMLID_354_" class="st0" d="M10,16.6c0,0.1,0,0.1,0,0.2C10,16.7,10,16.6,10,16.6z"/>
	<path id="XMLID_352_" class="st0" d="M23.2,18.2c0,0.1,0,0.2,0,0.3C23.2,18.4,23.2,18.3,23.2,18.2z"/>
	<path id="XMLID_351_" class="st0" d="M10.9,18.9c0,0,0.1,0,0.1,0C11,18.9,10.9,18.9,10.9,18.9z"/>
	<path id="XMLID_350_" class="st0" d="M14.5,18.9c0,0,0.1-0.1,0.1-0.1C14.6,18.8,14.6,18.8,14.5,18.9z"/>
	<path id="XMLID_349_" class="st0" d="M14.6,18.5c0,0-0.1-0.1-0.1-0.1C14.6,18.4,14.6,18.4,14.6,18.5z"/>
	<path id="XMLID_348_" class="st0" d="M14.5,18.2c0,0,0-0.1,0-0.1C14.5,18.1,14.5,18.1,14.5,18.2z"/>
	<path id="XMLID_347_" class="st0" d="M14.4,15.1c0,0-0.1,0-0.1,0C14.4,15.1,14.4,15.1,14.4,15.1z"/>
	<path id="XMLID_346_" class="st0" d="M10,18c0,0.1,0,0.1,0,0.2C10,18.1,10,18.1,10,18z"/>
	<path id="XMLID_344_" class="st0" d="M25.1,17C25.1,17,25.1,17,25.1,17C25.2,17.1,25.2,17.1,25.1,17c0.1,0.1,0.1,0.1,0.1,0.1
		C25.2,17.1,25.1,17.1,25.1,17z"/>
	<path id="XMLID_340_" class="st0" d="M24.7,28.5C24.7,28.5,24.7,28.5,24.7,28.5C24.7,28.5,24.7,28.5,24.7,28.5z"/>
	<path id="XMLID_339_" class="st0" d="M23.6,20.3C23.6,20.3,23.6,20.3,23.6,20.3C23.6,20.3,23.6,20.3,23.6,20.3z"/>
	<path id="XMLID_338_" class="st0" d="M11.8,18.9C11.8,18.9,11.8,18.9,11.8,18.9L11.8,18.9L11.8,18.9z"/>
	<path id="XMLID_337_" class="st0" d="M23.2,23.1C23.2,23.1,23.2,23.2,23.2,23.1C23.2,23.2,23.2,23.1,23.2,23.1z"/>
	<path id="XMLID_336_" class="st0" d="M25.2,17.1C25.2,17.1,25.2,17.1,25.2,17.1C25.2,17,25.2,17,25.2,17.1
		C25.2,17.1,25.2,17.1,25.2,17.1z"/>
	<path id="XMLID_335_" class="st0" d="M23.6,20.6C23.6,20.6,23.6,20.6,23.6,20.6C23.6,20.6,23.6,20.6,23.6,20.6z"/>
	<path id="XMLID_333_" class="st0" d="M23.2,20.1C23.2,20.1,23.2,20.1,23.2,20.1C23.2,20.1,23.2,20.1,23.2,20.1z"/>
	<path id="XMLID_331_" class="st0" d="M12.5,30.7C12.5,30.6,12.5,30.6,12.5,30.7C12.6,30.6,12.6,30.6,12.5,30.7
		C12.5,30.7,12.5,30.7,12.5,30.7z"/>
	<path id="XMLID_330_" class="st0" d="M14.6,30.6C14.7,30.6,14.7,30.6,14.6,30.6C14.7,30.6,14.7,30.6,14.6,30.6
		C14.7,30.6,14.7,30.6,14.6,30.6z"/>
	<path id="XMLID_322_" class="st0" d="M26.1,26.1C26.1,26,26.1,26,26.1,26.1C26,26,26.1,26,26.1,26.1C26.1,26,26.1,26,26.1,26.1
		L26.1,26.1z"/>
	<path id="XMLID_321_" class="st0" d="M26.1,26.1C26.1,26.1,26.1,26.1,26.1,26.1C26.1,26.1,26.1,26.1,26.1,26.1L26.1,26.1z"/>
	<path id="XMLID_311_" class="st0" d="M25.1,23.4c0,0.1,0,0.2,0,0.3C24.9,23.6,25.1,23.5,25.1,23.4z"/>
	<path id="XMLID_310_" class="st0" d="M25.1,17.3c0,0.1,0,0.3,0,0.4C25.1,17.6,25.1,17.5,25.1,17.3z"/>
	<path id="XMLID_309_" class="st0" d="M25.1,21.8c0,0.1,0,0.2,0.1,0.3C25.1,22,25.1,21.9,25.1,21.8z"/>
	<path id="XMLID_308_" class="st0" d="M24.9,15.3C24.9,15.3,24.9,15.3,24.9,15.3c0,0.1,0,0.1,0,0.1c0,0,0,0,0,0
		C24.9,15.3,24.9,15.3,24.9,15.3z"/>
	<path id="XMLID_307_" class="st0" d="M10,15.7c0-0.2,0-0.4,0-0.5c0,0,0,0,0.1,0C10.1,15.4,10.1,15.6,10,15.7
		C10.1,15.8,10,15.8,10,15.7z"/>
	<path id="XMLID_303_" class="st0" d="M17.2,20.4c-0.4,0.4-0.4,0.6-0.3,0.9c0.1,0.3,0.4,0.4,0.7,0.4c0.4-0.1,0.6-0.3,0.6-0.7
		c1.5,1,1.9,3.3,1,4.9c-1,1.7-3.2,2.4-5,1.5c-1.8-0.9-2.5-3-1.8-4.8C13.2,20.6,15.2,19.7,17.2,20.4z"/>
</g>
</svg>
