<?xml version="1.0" encoding="utf-8"?>
<!-- Generator: Adobe Illustrator 19.0.0, SVG Export Plug-In . SVG Version: 6.00 Build 0)  -->
<svg version="1.1" id="fb-icon" xmlns="http://www.w3.org/2000/svg" xmlns:xlink="http://www.w3.org/1999/xlink" x="0px" y="0px"
	 viewBox="0 0 30 30" style="enable-background:new 0 0 30 30;" xml:space="preserve">
	<path id="facebook" d="M17.6,30c-2,0-3.9,0-5.9,0c0-4.4,0-8.7,0-13.1c-1.6,0-3.1,0-4.7,0c0-1.8,0-3.6,0-5.5c1.6,0,3.1,0,4.7,0
		c0-0.2,0-0.3,0-0.4c0-1.3,0-2.6,0-3.8c0-1.3,0.2-2.6,0.9-3.8C13.5,1.6,15,0.6,17,0.2c1.3-0.3,2.5-0.2,3.8-0.1c0.7,0.1,1.4,0.1,2,0.2
		c0.1,0,0.2,0.1,0.2,0.2C23,2,23,3.5,23,5c-0.2,0-0.4,0-0.5,0c-0.9,0-1.9,0-2.8,0.1c-1.2,0.2-2,1-2.1,2.2c-0.1,1.4,0,2.7,0,4.1
		c1.7,0,3.4,0,5.2,0c-0.3,1.8-0.6,3.7-0.8,5.5c-1.5,0-2.9,0-4.4,0C17.6,21.3,17.6,25.6,17.6,30z"/>
</svg>
