<?xml version="1.0" encoding="utf-8"?>
<!-- Generator: Adobe Illustrator 19.0.0, SVG Export Plug-In . SVG Version: 6.00 Build 0)  -->
<svg version="1.1" id="insta-icon" xmlns="http://www.w3.org/2000/svg" xmlns:xlink="http://www.w3.org/1999/xlink" x="0px" y="0px"
	 viewBox="0 0 30 30" style="enable-background:new 0 0 30 30;" xml:space="preserve">
	<g id="insta">
		<path id="XMLID_50_" d="M15,30c-2.3-0.1-4.5-0.1-6.8-0.2c-2.7-0.2-5.1-1.2-6.7-3.6c-1-1.4-1.4-3.1-1.4-4.8c0-4.3-0.1-8.6,0-12.9
			c0-2.2,0.7-4.2,2.2-5.8c1.4-1.4,3-2.3,5-2.5C9.9,0.1,12.5,0,15.2,0c2.3,0,4.6,0,6.9,0.2c3,0.2,5.3,1.6,6.8,4.3c0.7,1.3,1,2.7,1,4.1
			c0.1,3.5,0.1,7,0.1,10.6c0,1.7,0,3.4-0.5,5c-1,3-3,4.8-6,5.4c-1.6,0.4-3.3,0.3-4.9,0.3C17.3,30,16.1,29.9,15,30C15,30,15,30,15,30z
			M27.3,13.7c-0.1-1.5-0.1-3.9-0.3-6.2c-0.2-2.3-1.5-3.8-3.8-4.4c-1.4-0.4-2.8-0.4-4.2-0.4c-2.8,0-5.6,0-8.5,0
			c-1.4,0-2.8,0.1-4.2,0.5C4.8,3.7,3.7,4.8,3.2,6.4c-0.5,1.4-0.5,2.9-0.5,4.3c0,2.1,0,4.2,0,6.3c0,1.9,0,3.8,0.3,5.7
			c0.4,2,1.5,3.5,3.5,4c1.1,0.3,2.3,0.4,3.4,0.5c2.3,0.1,4.7,0.1,7,0.1c1.8,0,3.7,0,5.5-0.3c1.7-0.3,3.1-1.1,4-2.6
			c0.6-1,0.7-2.2,0.8-3.3C27.3,18.9,27.3,16.7,27.3,13.7z"/>
		<path id="XMLID_43_" d="M14.9,22.6c-4.2,0-7.6-3.5-7.6-7.7c0-4.3,3.5-7.7,7.7-7.7c4.2,0,7.7,3.5,7.6,7.7
			C22.6,19.3,19.2,22.7,14.9,22.6z M15,10c-2.8,0-5,2.2-5,5c0,2.7,2.3,5,5,5c2.8,0,5-2.2,5-5C20,12.2,17.7,10,15,10z"/>
		<path id="XMLID_42_" d="M24.8,7c0,1-0.8,1.8-1.8,1.8c-1,0-1.8-0.8-1.8-1.8c0-1,0.8-1.8,1.8-1.8C24,5.2,24.8,6,24.8,7z"/>
	</g>
</svg>
