<?xml version="1.0" encoding="utf-8"?>
<!-- Generator: Adobe Illustrator 19.0.0, SVG Export Plug-In . SVG Version: 6.00 Build 0)  -->
<svg version="1.1" id="logo-wrap" xmlns="http://www.w3.org/2000/svg" xmlns:xlink="http://www.w3.org/1999/xlink" x="0px" y="0px"
	 viewBox="-248 220.3 782.4 360.7" style="enable-background:new -248 220.3 782.4 360.7;" xml:space="preserve">
<style type="text/css">
	.st0{fill:#1C1C1C;}
	.st1{fill:none;}
</style>
<g id="logo">
	<g id="text">
		<g id="daniel">
			<path id="XMLID_4_" class="st0" d="M-194.9,410.1H-248V291.3h53.8c11.9,0,22.1,2.5,30.5,7.5s14.8,11.9,19.1,20.8s6.5,19,6.5,30.4
				c0,12.1-2.4,22.7-7.2,31.8c-4.8,9.1-11.5,16.1-20.1,21C-173.9,407.7-183.8,410.1-194.9,410.1z M-195.7,316.2h-20.5v68.9h19.2
				c7.7,0,14-3,18.8-9.1s7.3-14.7,7.3-26c0-10-2.2-18.1-6.6-24.4C-181.8,319.4-187.9,316.2-195.7,316.2z"/>
			<path id="XMLID_7_" class="st0" d="M-116,353.3l-8.4-22.9c4.9-2.2,10.7-4.1,17.5-5.7s13.4-2.4,19.9-2.4c11.3,0,20,3.1,26,9.4
				c6.1,6.3,9.1,14.9,9.1,25.9V410h-15.4l-9.1-8.7C-82,408.4-88.3,412-95.5,412c-10.5,0-18.4-2.6-23.8-7.9c-5.4-5.2-8-12.4-8-21.3
				c0-16.5,11.1-24.8,33.2-24.8H-84c-0.5-3.3-1.7-5.7-3.6-7.3c-1.9-1.6-4.4-2.4-7.4-2.4c-2.8,0-6.2,0.5-10.2,1.5
				C-109.1,350.7-112.8,351.9-116,353.3z M-100.7,382.3c0,1.7,0.6,3.2,1.7,4.3c1.1,1.1,2.5,1.7,4.1,1.7c3.6,0,7.3-1.6,11.2-4.7v-8
				h-9.8c-2.1,0-3.8,0.6-5.2,1.9C-100,378.7-100.7,380.3-100.7,382.3z"/>
			<path id="XMLID_10_" class="st0" d="M-3.3,410.1h-31.8v-84.8h18.9l5.6,8.7c12.3-7.7,23.9-11.5,34.6-11.5c10.3,0,17.9,3,23.1,9
				c5.1,6,7.7,14,7.7,23.9v54.7H23v-51.7c0-2.9-0.7-5.3-2.1-7.3c-1.4-1.9-3.7-2.9-7-2.9c-1.9,0-4.5,0.5-7.9,1.5s-6.5,2.1-9.3,3.4
				L-3.3,410.1L-3.3,410.1z"/>
			<path id="XMLID_12_" class="st0" d="M87.2,313.8c-4.7,0-8.7-1.7-12.1-5.1s-5.1-7.4-5.1-12.1c0-4.8,1.7-8.9,5.1-12.3
				s7.4-5.2,12.1-5.2c4.8,0,8.9,1.7,12.3,5.2c3.4,3.4,5.2,7.5,5.2,12.3c0,4.7-1.7,8.7-5.2,12.1C96.1,312.1,92,313.8,87.2,313.8z
				 M71.5,410.1v-84.8h31.8v84.8H71.5z"/>
			<path id="XMLID_15_" class="st0" d="M201.7,375.7h-51.6c1.2,3.6,3.3,6.4,6.6,8.5c3.2,2,7.4,3.1,12.7,3.1c8,0,15.8-1.9,23.2-5.8
				l8.9,21.5c-3.5,2.6-8.5,4.7-15.1,6.5c-6.6,1.7-13.3,2.6-20.2,2.6c-9.9,0-18.7-1.7-26.3-5.1s-13.6-8.4-17.9-15.1s-6.5-14.7-6.5-24
				c0-9.2,2-17.2,5.9-24.1c4-6.9,9.4-12.1,16.3-15.8c6.9-3.7,14.7-5.5,23.3-5.5c8.7,0,16.1,2,22.2,5.9c6.1,4,10.6,9.3,13.7,15.9
				s4.6,14,4.6,22.2v9.2L201.7,375.7L201.7,375.7z M149.3,359.9h22c0-2.9-0.9-5.7-2.8-8.2c-1.9-2.6-4.6-3.8-8.2-3.8
				c-2.9,0-5.5,1.2-7.8,3.7C150.3,354,149.2,356.8,149.3,359.9z"/>
			<path id="XMLID_18_" class="st0" d="M215.7,410.1V288.6l31.8-1.9v123.4H215.7z"/>
		</g>
		<g id="smithson">
			<path id="XMLID_20_" class="st0" d="M-234.3,551.5l10.5-23.9c3.1,1.9,7.5,3.6,13,5.2s10.4,2.4,14.6,2.4c4.7,0,8.4-1,11.2-2.9
				s4.2-4,4.2-6.4c0-1.5-1-3-3.1-4.5c-2-1.5-5.3-3.5-9.9-6.2l-5.4-3.1c-7.9-4.7-14.1-8.5-18.5-11.6s-8.4-7.1-11.9-12
				s-5.2-10.4-5.2-16.6c0-6.5,1.8-12.4,5.5-17.6s8.8-9.2,15.5-12.1c6.6-2.9,14.4-4.4,23.2-4.4c6.1,0,12.3,0.9,18.6,2.6
				s11.8,4.1,16.3,7.2l-9.4,21.5c-6.2-2.1-10.9-3.5-14.2-4.2s-7-1-10.9-1c-3.5,0-6.3,0.8-8.5,2.4s-3.2,3.6-3.2,5.9
				c0,1.7,0.9,3.3,2.7,4.6c1.8,1.3,4.8,3.1,9,5.3l6.3,3.5c7.3,4.2,13.5,8.1,18.4,11.6c4.9,3.6,9.1,7.8,12.5,12.6
				c3.4,4.8,5.2,10.3,5.2,16.3c0,6.8-1.9,12.8-5.8,18c-3.8,5.2-9.4,9.4-16.5,12.4c-7.2,3-15.5,4.5-25.1,4.5
				c-6.2,0-13.1-0.9-20.7-2.8C-223.7,556.5-229.8,554.2-234.3,551.5z"/>
			<path id="XMLID_22_" class="st0" d="M8.5,504.2v54.7h-31.8v-51.7c0-3.3-0.5-5.8-1.5-7.5s-3.2-2.6-6.7-2.6c-1.5,0-3.9,0.5-7.2,1.6
				c-3.3,1-6.2,2.2-8.9,3.3v2.3V559h-31.8v-51.7c0-3.3-0.5-5.8-1.5-7.5s-3.2-2.6-6.7-2.6c-1.5,0-3.9,0.5-7.3,1.6s-6.3,2.2-9,3.3v57
				h-31.8v-84.8h18.9l5.6,8.7c12.4-7.7,23.6-11.5,33.7-11.5c11.2,0,19.2,3.5,24.1,10.5c11.5-7,22.2-10.5,32-10.5
				C-1.5,471.3,8.5,482.2,8.5,504.2z"/>
			<path id="XMLID_24_" class="st0" d="M41,462.6c-4.7,0-8.7-1.7-12.1-5.1s-5.1-7.4-5.1-12.1c0-4.8,1.7-8.9,5.1-12.3
				s7.4-5.2,12.1-5.2c4.8,0,8.9,1.7,12.3,5.2c3.4,3.4,5.2,7.5,5.2,12.3c0,4.7-1.7,8.7-5.2,12.1C49.9,460.9,45.8,462.6,41,462.6z
				 M25.2,558.9v-84.8H57v84.8H25.2z"/>
			<path id="XMLID_27_" class="st0" d="M134.7,477.6l3,25h-25.2v21c0,3.5,0.9,6.3,2.7,8.3c1.8,2,4.2,3.1,7.3,3.1
				c4.2,0,8.3-1.1,12.2-3.3l9.1,21.7c-2.2,1.9-5.7,3.6-10.4,5.2c-4.7,1.6-9.1,2.4-13,2.4c-7,0-13.5-1.3-19.6-3.8
				c-6.1-2.6-10.9-6.4-14.6-11.4c-3.7-5.1-5.5-11.2-5.5-18.4v-24.5H67.6v-25h13.1V455l31.8-4.4v27.3h22.2V477.6z"/>
			<path id="XMLID_29_" class="st0" d="M238.1,480.3c5.1,6,7.7,14,7.7,23.9v54.7H214v-51.7c0-6.8-3-10.1-9.1-10.1
				c-1.9,0-4.5,0.5-7.9,1.5s-6.5,2.1-9.3,3.4v57H156V437.4l31.8-1.9v43.2c9.8-4.9,18.9-7.3,27.3-7.3
				C225.3,471.3,233,474.3,238.1,480.3z"/>
			<path id="XMLID_31_" class="st0" d="M257.7,550.8l8.9-20.1c3.4,1.6,7.5,3,12.3,4.2s8.8,1.7,11.8,1.7c2.1,0,3.8-0.3,5.2-1
				s2.1-1.6,2.1-2.8c0-0.7-0.8-1.5-2.4-2.5s-3.6-1.9-6-2.7c-8.9-3.1-16.1-6.9-21.8-11.2s-8.5-10-8.5-17c0-8.9,3.3-15.8,10-20.8
				c6.6-5,15.8-7.5,27.6-7.5c5,0,10.5,0.7,16.5,2s11.2,3.7,15.5,7.1l-8.9,20.1c-3.5-1.5-7.1-2.7-10.7-3.7c-3.7-0.9-7-1.4-10.1-1.4
				c-2.6,0-4.7,0.4-6.3,1c-1.6,0.7-2.4,1.6-2.4,2.8c0,0.7,0.8,1.5,2.4,2.4s3.8,1.9,6.5,2.8c8.7,3,15.9,6.7,21.4,11.1
				c5.5,4.4,8.3,10.1,8.3,17c0,9-3,15.9-8.9,20.9s-14.7,7.4-26.4,7.4c-5,0-11.2-0.8-18.6-2.4C267.9,556.7,262,554.2,257.7,550.8z"/>
			<path id="XMLID_33_" class="st0" d="M425.9,540.7c-4.3,6.6-10.1,11.7-17.5,15c-7.4,3.4-15.7,5.1-24.9,5.1
				c-14.2,0-25.7-3.8-34.3-11.4c-8.7-7.6-13-18.7-13-33.3c0-9.2,2.1-17.2,6.4-24s10-12,17.3-15.6s15.4-5.3,24.4-5.3
				c9.4,0,17.8,1.7,25,5.2s12.9,8.7,17,15.6c4.1,6.9,6.1,15.2,6.1,25C432.3,526.1,430.2,534,425.9,540.7z M395.4,530.4
				c2.7-3,4-7.5,4-13.5c0-5.8-1.3-10.6-3.9-14.3s-6.3-5.6-10.9-5.6c-4.9,0-8.7,1.7-11.4,5.1s-4.1,8-4.1,14c0,5.8,1.3,10.4,3.8,13.8
				c2.6,3.4,6.2,5.1,11,5.1C388.9,534.9,392.8,533.4,395.4,530.4z"/>
			<path id="XMLID_36_" class="st0" d="M476.4,558.9h-31.8v-84.8h18.9l5.6,8.7c12.4-7.7,23.9-11.5,34.6-11.5c10.3,0,17.9,3,23.1,9
				c5.1,6,7.7,14,7.7,23.9v54.7h-31.8v-51.7c0-2.9-0.7-5.3-2.1-7.3c-1.4-1.9-3.7-2.9-7-2.9c-1.9,0-4.5,0.5-7.9,1.5s-6.5,2.1-9.3,3.4
				L476.4,558.9L476.4,558.9z"/>
		</g>
	</g>
	<g id="drum">
		<path id="base" class="st0" d="M501,405c0,0-0.3,0-0.3-0.1v-77.2c0-0.3,0.3-0.6,0.2-1c0.1-0.5,0.3-1,0.3-1.5
			c0-17.2-41.1-31.1-91.9-31.1c-50.8,0-91.9,13.9-91.9,31.1c0,0.5,0.2,1,0.3,1.5c-0.1,0.3,0.1,0.6,0.1,1v77.2c0,0-0.2,0-0.2,0.1
			l-0.1,0.1c0,7.6,8.3,14.5,21.3,19.9v-37.3c0-5.5,4.6-9.6,10.1-9.6s9.9,4.1,9.9,9.6v42.7c0,0.3,0.3,0.5,0.3,0.7
			c11.8,2.6,25.7,4.4,40.7,4.9v-37.3c0-5.6,4.4-10.1,10-10.1c5.6,0,10,4.5,10,10.1V436c14-0.5,27.8-2.2,39.4-4.7
			c-0.2-0.9-0.4-1.8-0.4-2.7v-42.7c0-5.5,4.3-9.8,9.8-9.8s10.2,4.3,10.2,9.8v39.6c14-5.5,22.5-12.6,22.5-20.4
			C501.3,405.1,501,405.1,501,405z M409,349.6c-46.1,0-83.4-10.5-83.5-23.4c0-12.9,37.3-23.5,83.4-23.5c46.1,0,83.4,10.5,83.5,23.4
			C492.5,339.1,455.2,349.6,409,349.6z"/>
		<path id="top" class="st1" d="M492.5,326.1c0,13-37.3,23.5-83.4,23.5c-46.1,0-83.4-10.5-83.5-23.4c0-12.9,37.3-23.5,83.4-23.5
			C455,302.7,492.3,313.2,492.5,326.1z"/>
		<path id="stick-right" class="st0" d="M517.2,278.9l-81.6,53.5c-4.8,3.2-11.3,1.8-14.5-3l0,0c-3.2-4.8-1.8-11.3,3-14.5l81.6-53.5
			c4.8-3.2,11.3-1.8,14.5,3l0,0C523.3,269.3,522,275.8,517.2,278.9z"/>
		<path id="stick-left" class="st0" d="M336.3,256l41.3,71.1c2.9,5,9.3,6.7,14.3,3.8l0,0c5-2.9,6.7-9.3,3.8-14.3l-41.3-71.1
			c-2.9-5-9.3-6.7-14.3-3.8l0,0C335.1,244.5,333.4,251,336.3,256z"/>
		<g id="sound-wave">
			<g id="outer-wave">
				<path id="XMLID_1_" class="st0" d="M302.1,323.9c0-9,7.4-17.4,20-24.3c-15.5,6.7-24.8,15.3-24.8,24.7
					c0,11.2,13.3,21.3,34.6,28.4C313.5,345.3,302.1,335.1,302.1,323.9z"/>
				<path id="XMLID_8_" class="st0" d="M520.9,324.4c0-9.2-8.9-17.6-23.9-24.3c12.1,6.8,19.2,15,19.2,23.9c0,11-11,21-28.8,28.5
					C508,345.3,520.9,335.4,520.9,324.4z"/>
			</g>
			<g id="inner-wave">
				<path id="XMLID_13_" class="st0" d="M311.6,323.5c0-8.2,6.7-15.7,18-21.9c-14,6.1-22.3,13.8-22.3,22.2c0,10.1,12,19.2,31.2,25.6
					C321.8,342.7,311.6,333.6,311.6,323.5z"/>
				<path id="XMLID_11_" class="st0" d="M508.8,323.8c0-8.3-8-15.9-21.5-21.9c10.9,6.1,17.3,13.5,17.3,21.5c0,9.9-9.9,18.9-26,25.7
					C497.2,342.7,508.8,333.7,508.8,323.8z"/>
			</g>
		</g>
	</g>
</g>
</svg>
