<?xml version="1.0" encoding="utf-8"?>
<!-- Generator: Adobe Illustrator 19.0.0, SVG Export Plug-In . SVG Version: 6.00 Build 0)  -->
<svg version="1.1" id="mail-icon" xmlns="http://www.w3.org/2000/svg" xmlns:xlink="http://www.w3.org/1999/xlink" x="0px" y="0px"
	 viewBox="0 0 30 30" style="enable-background:new 0 0 30 30;" xml:space="preserve">
	<g id="mail">
		<path id="top" d="M15,3.8c4,0,8,0,12,0c1.4,0,2.6,0.8,2.9,2.1C30,6.5,30,7.2,30,7.8c0,0.7-0.6,1.1-1.1,1.4c-3.1,2.3-6.3,4.7-9.5,7
			c-0.9,0.7-1.8,1.3-2.7,1.9c-1.1,0.8-2.3,0.8-3.5,0c-1.1-0.8-2.2-1.6-3.3-2.4c-3.1-2.3-6.1-4.6-9.2-6.8C0.2,8.6,0,8.1,0,7.5
			c0-0.5,0-0.9,0.1-1.4C0.2,4.8,1.4,3.8,3,3.8C7,3.8,11,3.8,15,3.8z"/>
		<path id="bottom" d="M15,26.2c-4,0-7.9,0-11.9,0c-1,0-1.9-0.3-2.5-1.2C0.2,24.6,0,24,0,23.4c0-3.9,0-7.8,0-11.7
			c0-0.2,0.1-0.5,0.2-0.6c0.1-0.1,0.4,0,0.6,0.2c3.4,2.5,6.8,5.1,10.3,7.6c0.7,0.5,1.6,1,2.4,1.4c1.4,0.6,2.7,0.4,3.9-0.4
			c1.1-0.7,2.1-1.4,3.1-2.1c2.9-2.2,5.9-4.3,8.8-6.5c0.1-0.1,0.4-0.1,0.5-0.1c0.1,0,0.2,0.3,0.2,0.4c0,4,0,7.9,0,11.9
			c0,1.5-1.2,2.7-2.6,2.7c-1.7,0-3.4,0-5.1,0C19.9,26.2,17.4,26.2,15,26.2z"/>
	</g>
</svg>
