<?xml version="1.0" encoding="utf-8"?>
<!-- Generator: Adobe Illustrator 19.0.0, SVG Export Plug-In . SVG Version: 6.00 Build 0)  -->
<svg version="1.1" id="Layer_1" xmlns="http://www.w3.org/2000/svg" xmlns:xlink="http://www.w3.org/1999/xlink" x="0px" y="0px"
	 viewBox="0 0 32 32" style="enable-background:new 0 0 32 32;" xml:space="preserve">
<style type="text/css">
	.st0{fill:#F2F2F2;}
</style>
<g>
	<path class="st0" d="M11.8,14.9c0.4,0.2,0.6,0.6,0.6,1.1c0,0.5-0.2,0.8-0.6,1.1l-10,5.8c-0.1,0.1-0.3,0.1-0.5,0.1
		c-0.3,0-0.6-0.1-0.9-0.3C0.1,22.3,0,22,0,21.7V10.1c0-0.3,0.1-0.6,0.4-0.8C0.7,9.1,1,8.9,1.3,8.9c0.2,0,0.3,0,0.5,0.1L11.8,14.9z
		 M25.2,14.9c0.4,0.2,0.5,0.6,0.5,1.1c0,0.5-0.2,0.9-0.5,1.1l-10,5.8c-0.1,0.1-0.3,0.1-0.5,0.1c-0.3,0-0.6-0.1-0.9-0.4
		c-0.3-0.2-0.4-0.5-0.4-0.8V10.1c0-0.3,0.1-0.6,0.4-0.8c0.3-0.2,0.6-0.3,0.9-0.3c0.2,0,0.4,0,0.5,0.1L25.2,14.9z M32,25.9
		c0,0.4-0.1,0.8-0.4,1c-0.3,0.3-0.6,0.4-1,0.4H30c-0.4,0-0.8-0.1-1.1-0.4c-0.3-0.3-0.4-0.6-0.4-1.1V6.1c0-0.4,0.1-0.8,0.4-1.1
		c0.3-0.3,0.6-0.4,1.1-0.4h0.5c0.4,0,0.7,0.1,1,0.4c0.3,0.3,0.4,0.6,0.4,1V25.9z"/>
</g>
</svg>
