<?xml version="1.0" encoding="utf-8"?>
<!-- Generator: Adobe Illustrator 19.0.0, SVG Export Plug-In . SVG Version: 6.00 Build 0)  -->
<svg version="1.1" id="Layer_1" xmlns="http://www.w3.org/2000/svg" xmlns:xlink="http://www.w3.org/1999/xlink" x="0px" y="0px"
	 viewBox="0 0 32 32" style="enable-background:new 0 0 32 32;" xml:space="preserve">
<style type="text/css">
	.st0{fill:#F2F2F2;}
</style>
<path id="XMLID_3_" class="st0" d="M0,16c0-4.1,0-8.3,0-12.4C0,1.9,1,0.6,2.5,0.2C2.9,0.1,3.2,0,3.6,0C5.8,0,8,0,10.1,0
	c1.5,0,2.6,0.7,3.2,2c0.2,0.5,0.3,1.1,0.3,1.6c0,8.1,0,16.3,0,24.4c0,0.6-0.1,1.3-0.3,1.9c-0.6,1.4-1.7,2-3.2,2c-2.2,0-4.4,0-6.6,0
	c-2,0-3.6-1.6-3.6-3.6C0.1,24.3,0,20.1,0,16C0,16,0,16,0,16z"/>
<path id="XMLID_2_" class="st0" d="M32,16c0,4.3,0,8.5,0,12.8c0,1.4-1.3,2.9-2.7,3.1C28.9,32,28.5,32,28.2,32c-2.1,0-4.1,0-6.2,0
	c-2,0-3.7-1.4-3.7-3.5c0-0.2,0-0.3,0-0.5c0-8.1,0-16.2,0-24.3c0-0.9,0.2-1.8,0.8-2.5C19.8,0.4,20.7,0,21.7,0c2.3,0,4.5,0,6.8,0
	c1.7,0,3.1,1.1,3.4,2.7C32,3,32,3.3,32,3.6C32,7.8,32,11.9,32,16C32,16,32,16,32,16z"/>
</svg>
