<?xml version="1.0" encoding="utf-8"?>
<!-- Generator: Adobe Illustrator 19.0.0, SVG Export Plug-In . SVG Version: 6.00 Build 0)  -->
<svg version="1.1" id="Layer_1" xmlns="http://www.w3.org/2000/svg" xmlns:xlink="http://www.w3.org/1999/xlink" x="0px" y="0px"
	 viewBox="0 0 32 32" style="enable-background:new 0 0 32 32;" xml:space="preserve">
<style type="text/css">
	.st0{fill:#F2F2F2;}
</style>
<path id="XMLID_1_" class="st0" d="M2.1,16c0-4.4,0-8.8,0-13.1c0-1.5,1.3-2.7,2.8-2.8C5.9,0,6.7,0.5,7.5,1c1.7,1,3.3,2,5,2.9
	c2,1.2,4.1,2.4,6.1,3.6C19.8,8.3,21,9,22.2,9.8c1.2,0.7,2.5,1.4,3.7,2.2c1,0.6,1.9,1.1,2.8,1.7c0.7,0.5,1,1.2,1.1,2.1
	c0.1,1.5-0.7,2.4-1.8,3.1c-1.5,0.9-3,1.7-4.4,2.6c-2.1,1.3-4.3,2.6-6.4,3.8c-2.2,1.3-4.5,2.6-6.7,4c-1.4,0.8-2.7,1.7-4.1,2.4
	c-1.7,0.9-3.8-0.1-4.2-2.1c0-0.2,0-0.5,0-0.7C2.1,24.6,2.1,20.3,2.1,16C2.1,16,2.1,16,2.1,16z"/>
</svg>
