<svg version="1.1" id="drummer-icon" xmlns="http://www.w3.org/2000/svg" x="0" y="0" viewBox="0 0 30 30" xml:space="preserve"><style>.st0{fill:#1c1c1c}</style><g id="drummer"><path id="XMLID_431_" class="st0" d="M16.8 16c0 .3-.1.5-.4.6-.1 0-.2.2-.3.2 0 .1-.1.2-.2.2 0-.1-.1-.1-.1-.2-.2-.1-.3-.2-.5-.3-.1 0-.1-.1-.2-.1v-.3c-.1-.4-.1-.8-.2-1.1-.1-.3-.2-.4-.5-.4s-.7 0-1-.1c0-.4-.1-.8-.1-1.1 0-.5-.1-.9-.1-1.4 0-.2-.4-.5-.6-.5H12c-.2 0-.4-.1-.3-.3 0-.3-.2-.4-.4-.6-.6-.4-1.1-.9-1.7-1.4-.1-.2-.1-.4 0-.6.5-1.1 1.2-2 1.9-2.9.2-.2.4-.5.5-.6-.1-.2-.1-.3-.2-.4.1 0 .2-.1.3-.1.1-.1.3-.1.4-.2.2-.2.3-.3.5-.1.1.1.3.1.5.1.3 0 .4.1.5.4 1 0 2 .1 3 .2h.2c.1 0 .1 0 .2.1v.2s-.1.1-.2.1c-.8-.1-1.6-.1-2.4-.2h-.3c-.4-.1-.7.1-.9.4-.2.2-.4.4-.7.3-.1 0-.3.1-.4.2-.4.6-.7 1.2-1.1 1.9-.1.3-.2.6-.4.8 1.1.7 2.3 1 3.7 1.1-.1-.3-.2-.6-.3-.8-.3-.8-.5-1.7-.1-2.5.1-.3.3-.5.6-.6.4-.1.8-.2 1.2-.2.4 0 .8.3 1 .7.4.8.4 1.5 0 2.3 0 .2-.1.4-.2.7h.1c.4-.1.7-.3 1.1-.4.4-.1.8-.2 1.2-.2.7 0 1.3-.3 1.9-.6.1 0 .1-.1.2-.1.3-.5.6-.9.9-1.4.2-.3.2-.5 0-.8-.3 0-.3-.2-.2-.5.1-.2 0-.4-.2-.6-1-1.2-2-2.4-2.9-3.5-.1-.1-.2-.3-.3-.4-.1-.1-.2-.2-.3-.2-.2-.1-.2-.2-.1-.5h.2c.5.9 1.2 1.4 1.8 2.2.7.8 1.3 1.5 1.9 2.3l.1.1c.2-.2.4-.3.5.1 0 .1.2.2.4.2.4.2.5.6.5 1 0 .2.2.4.2.6 0 .1 0 .2-.1.3-.1 0-.2-.1-.3-.1l-.1-.1c-.1.4-.2.7-.3 1-.1.1-.1.2-.1.3-.3.8-.7 1.5-1.7 1.8-.3.1-.6.3-.9.4-.2.1-.3.2-.3.4 0 .3-.1.4-.3.5-.3.1-.6.2-.8.4-.1.1-.2.1-.2.3 0 .9-.1 1.9-.1 2.8-.4.1-.7.1-1.1.2-.4.1-.6.3-.6.6 0 0-.1 0-.1.1-.1.2-.1.3-.2.5 0-.2 0-.2.1-.2z"/><path id="XMLID_422_" class="st0" d="M4.9 24.9c0-.2-.1-.3.1-.5.1-.1.1-.3.1-.5s.1-.3-.2-.4c-.2-.1-.1-.7.1-.8.1 0 .1-.1.1-.2v-2c-.3-.1-.4-.3-.2-.6v-.4c0-.3.1-.4.4-.4h5.1c.3 0 .4.1.4.4 0 .1.1.3.1.4.1.2 0 .4-.3.5v2.1c.4.1.1.4.2.7v.1c-.4.2-.2.5-.2.8 0 .2.2.4.2.5 0 .2-.2.3-.2.5v.9c0 .2-.1.5-.1.7h-.1c0-.2-.1-.3-.1-.5v-1.4H9v-2.5l-.3-.3c-.1.1-.2.2-.2.3 0 .7-.1 1.5-.1 2.2v.3h-.7v1.3c0 .2 0 .4-.1.6 0 .3-.1.6 0 .9 0 .2.2.3.4.4.1.1.1.2.2.3 0 .1 0 .3-.2.3s-.4.1-.4-.2c0-.1 0-.1-.1-.2-.6-.6-1.2-1.2-1.9-1.8-.4.3-.9.6-1.5 1-.1 0-.1.1-.1.2 0 .6-.1 1.2-.1 1.7 0 .3-.1.3-.4.3-.2 0-.3-.1-.3-.3.1-.6.2-1.1.2-1.7 0-.2 0-.3-.2-.4-.2 0-.5-.2-.7-.4-.6.6-1.2 1.2-1.8 1.7l-.1.1c-.1.4-.2.4-.6.3v-.4c1.2-1.3 2.5-2.5 3.7-3.8.2-.2.3-.4.3-.7v-8.5c-.1 0-.2.1-.2.1-.5.3-1.1.7-1.6 1-.2.1-.3.2-.5 0-.1-.2 0-.3.2-.4.6-.4 1.3-.8 1.9-1.2.2-.1.3-.2.4-.4l.1-.1c.7-.1 1.1-.6 1.7-.9.1 0 .2-.1.2-.1.4-.3.4-.3.9.1-.5.3-.9.6-1.4.8-.2.1-.4.2-.5.3-.2.1-.2.2-.3.3-.1.1-.3.2-.5.4v1.4c.1 0 .2-.1.4-.1.1 0 .3 0 .3.1.1.1 0 .3 0 .5h-.3c-.1.1-.3.1-.4.2v4h.3c.1.4.1.4-.3.4v2.7c0 .1.2.3.3.4.1 0 .3.1.4.3 0 0 .1 0 .1-.1l-.3-.3zm2.2 2.3c.3-.7.1-1.5.2-2.2H5.5c0 .3 0 .6.1.8.5.5 1 1 1.5 1.4zm-3-.1c.4-.3.8-.5 1.3-.8-.4-.3-.8-.6-1.1-.9-.1.4-.2 1-.2 1.7zm-1.4-.7c.3.2.6.4.8.7 0-.6.1-1.1.1-1.6l-.9.9zm4.4-6.7c0 .2.1.5.1.7 0 .1 0 .2.1.4 0 .1.1.2.1.3.1-.1.2-.1.2-.2s0-.3-.1-.4c0-.1-.1-.1-.1-.2.1 0 .2-.1.2-.1.1-.1.2-.1.2-.2s-.1-.2-.2-.2c-.1-.2-.3-.1-.5-.1zm.5 4.8c0-.3 0-.5-.1-.8 0-.2-.2-.3-.3-.2-.1.2-.1.4-.2.6-.1.2 0 .3.2.3.2.2.3.1.4.1zm2-.8c0 .2.1.4.1.7 0 .1.1.2.2.2s.2-.1.2-.2c.1-.3-.2-.7-.5-.7zm-2.7-1.3c.1.1.1.2.2.2.1.1.3.2.5.2.1 0 .3.1.3-.1s0-.3-.2-.3h-.8z"/><path id="XMLID_419_" class="st0" d="M24.7 28.5V26c0-.1 0-.2-.1-.4-.1.1-.2.3-.3.4-.6 1-1.2 1.9-1.7 2.9-.1.1-.1.3-.1.5s-.1.3-.3.3c-.5 0-.5-.2-.3-.6.9-1.4 1.7-2.8 2.6-4.3.1-.1.1-.3.1-.5 0-.8 0-1.6.1-2.3h.2c0 .3-.1.5-.1.8v.7c0 .4 0 .4.4.4v.2c-.1.5.2.9.5 1.2 1.3 1.2 2.5 2.4 3.8 3.5l.4.4v.3c-.2 0-.4 0-.7-.2-1.3-1.3-2.8-2.5-4.1-3.8H25v3.1c0 .2 0 .4-.2.4s-.1-.2-.1-.5zm1.4-2.4c0-.1 0-.1 0 0 0-.1-.1-.1 0 0 0-.1 0-.1 0 0z"/><path id="XMLID_418_" class="st0" d="M7.1 13.5c.5-.4 1.1-.8 1.6-1.1.2-.1.2-.3.2-.5-.1-.2-.2-.3-.4-.2-.3 0-.4.2-.2.5 0 .1 0 .2.1.3h-.3c-.2-.1-.3-.1-.4.1 0 0 0 .1-.1.1-.4.1-.6.2-.9.3-.1 0-.2.1-.3 0-.7-.5-1.4-1.1-1.8-2-.1-.2-.1-.4-.2-.5-.1-.5.1-1 .6-1.1.6-.2 1.2-.1 1.8 0 1.8.5 3.3 1.4 4.4 2.8.2.2.4.5.5.8.4.9-.1 1.5-1 1.6-1.2.1-2.4-.4-3.6-1.1z"/><path id="XMLID_417_" class="st0" d="M24.7 14.7c-.8.1-1.6.1-2.4-.1-.8-.3-1.3-1-1.2-1.7.1-.5.4-1 .8-1.3 1.4-1.2 3.1-1.6 4.9-1.2 1.6.4 2 1.8.8 3-.6.7-1.4 1-2.3 1.2 0-.4-.1-.8-.1-1.1 0-.2-.1-.3-.3-.4-.2-.1-.2-.2 0-.3.1-.1.2-.7 0-.7s-.5 0-.7.1c-.2.2 0 .6.3.7 0 .3.1.6-.3.7.1.1.3.2.4.4.1.2.1.4.1.7z"/><path id="XMLID_414_" class="st0" d="M16.5 19.2c.9.1 1.7.4 2.4 1 0 0 .1.1.2.1h.3c.2.1.3.3.4.5v.4c.5.6.8 1.3.9 2.1 0 .1.1.1.1.2.3.2.3.8 0 1 0 0-.1.1-.1.2s0 .3-.1.4c-.2.4-.1.8.1 1.2.3.7.5 1.4.8 2.1.1.2.3.5.4.7 0 .2 0 .2-.2.3-.5.1-.5.1-.5-.4 0-.3-.1-.5-.2-.8-.2-.7-.5-1.3-.8-2-.1.2-.2.4-.4.5v.1c.2.4-.2.5-.4.8 0 0-.1.1-.2.1-.2-.1-.4 0-.5.2-.6.4-1.3.7-2 .8-.1 0-.2.1-.2.2-.2.3-.4.1-.7.2-.2 0-.3-.1-.4-.3-.9-.1-1.7-.4-2.4-1 0 0-.1-.1-.2-.1h-.3c-.2-.1-.3-.3-.4-.5v-.1c.2-.4-.3-.6-.3-.9-.3 1-.9 1.9-1 3 0 .3-.1.4-.4.3-.1 0-.2 0-.3-.1-.1 0-.2-.1-.2-.1.1-.3.1-.5.2-.8 0-.1.2-.2.2-.3.3-.9.7-1.8 1-2.7.1-.3-.1-.6-.1-1 0-.1-.2-.1-.2-.2-.1-.2 0-.3-.1-.5 0-.2 0-.3.3-.4 0 0 .1-.1.1-.2.1-.7.4-1.4.8-2.1V21c0-.1-.1-.3 0-.3.1-.2.3-.3.5-.5h.1c.3.2.5-.1.7-.3.6-.4 1.2-.6 1.8-.7.1 0 .2-.1.2-.1.2-.3.5-.2.7-.2.1 0 .3.2.4.3zm-.6.6c-2.3 0-4.1 1.9-4.1 4.1 0 2.3 1.9 4.1 4.1 4.1 2.3 0 4.1-1.9 4.1-4.1.1-2.3-1.8-4.1-4.1-4.1z"/><path id="XMLID_408_" class="st0" d="M11.8 18.9h-1.5c-.3 0-.4-.2-.3-.5 0-.1.1-.1.1-.2v-1.6c-.1-.2-.3-.3-.2-.6.3 0 .4-.1.4-.4V15h.2s0 .1.1.1c0 0 0-.1.1-.1h3.9c0 .1.1.1.1.2.1.3.1.5.2.8v.3c0 .1-.1.1-.1.2l.2.2h.1c.1.1.2.1.3.2h.1c.1 0 .1.1.2.1l.1.1c0 .5.1 1 0 1.5 0 .1-.2.3-.4.4v-1.1c-.1 0-.3-.1-.4-.1-.1 0-.1-.1-.2-.1v.6l.1.1v.3l-.1.1H13c-.6.1-.9.1-1.2.1zm-.5-2v-.3c0-.2-.1-.4.1-.6v-.2c-.1-.1-.3-.1-.4.1-.2.3-.1.6.3 1zm2-.1s0 .1 0 0c.2-.1.3-.3.4-.4.1-.3 0-.7-.3-.7-.1 0-.2 0-.2.1v.2c.2.1.1.3.1.4v.4zm0 1.6s0 .1 0 0c.2-.2.3-.3.4-.5 0-.2-.1-.4-.2-.6h-.3v.2c.2.1.1.2.1.4v.5zm-2 .1v-.4c0-.2-.1-.4.1-.5v-.2c-.1-.1-.3-.1-.4.1-.2.2-.1.5.3 1z"/><path id="XMLID_404_" class="st0" d="M17.5 17.8c-.2.1-.4.1-.6.2v1c-.3 0-.4-.2-.4-.4v-1.2c0-.2.2-.4.4-.5l.6-.3c-.2-.3-.3-.5-.1-.7.1-.1 0-.2 0-.4s.1-.3.3-.3c.9-.1 1.9-.1 2.8 0 .4 0 .4.1.4.4 0 .1.1.2.1.3 0 .1.1.3 0 .4-.2.3-.1.6-.1.8v.8c0 .1 0 .2.1.3.1.3 0 .5-.3.5-1.1.1-2.1.2-3.2 0-.2 0-.3-.2-.2-.4 0-.1.1-.3.2-.5zm.9-.9v-.1c0-.3-.2-.6.1-.8 0 0 0-.1-.1-.2-.2-.1-.3-.1-.4.1-.1.3 0 .7.4 1zm.1 1.7v-.3c0-.2-.1-.4.1-.6 0 0 0-.2-.1-.2-.2-.1-.3 0-.4.2-.2.1-.1.5.4.9z"/><path id="XMLID_403_" class="st0" d="M23.9 23.9c.1.2.3.3.4.5.1.1 0 .3 0 .6-.2-.2-.4-.3-.6-.5 0 .6.1 1.2-.5 1.7v-1.6h-.1c-.6.8-1.3 1.5-1.9 2.3-.2-.3-.3-.6 0-1 .7-.8 1.3-1.7 1.9-2.6l.3.3c.2.1.3.2.5.3z"/><path id="XMLID_402_" class="st0" d="M23.9 23.9l-.3-.3-.3-.3v-2.4c0-.3-.1-.4-.4-.4-.1 0-.1-.1-.2-.1l.1-.1c.2 0 .3-.2.4-.2v-2c-.1-.2-.2-.3-.4-.5h.9l.1.1v.1c-.3.1-.2.3-.2.5v4.6c.1.4.1.7.3 1z"/><path id="XMLID_401_" class="st0" d="M21.2 17.4v-.5l2.1-.3c0-.3.1-.6.1-1h.1c.1.3.1.7.2 1 .7.1.7.1.6.8h-3.1z"/><path id="XMLID_400_" class="st0" d="M25.2 23.9c-.4 0-.4 0-.4-.4v-.7c0-.3.1-.5.1-.8h-.2c.3 0 .3-.2.2-.4-.1 0-.1-.1-.2-.1v-.2c0-.1.1-.2.1-.2v-3.6c0-.1-.1-.2-.1-.2V16h.5v.7h-.1s.1 0 .1.1v.1c0 .1-.1.2-.1.3l.1.1v.1s-.1 0-.1.1v.4c0 1.4 0 2.7-.1 4.1 0 .1 0 .2.1.3v1.3c-.1.1-.2.2 0 .3 0-.2.1-.1.1 0 0-.1 0-.1 0 0z"/><path id="XMLID_399_" class="st0" d="M8.4 25.1h.4v.4c0 .7 0 1.5.1 2.2 0 .2.1.4.2.7 0 .2-.1.3-.3.2-.2 0-.3 0-.3-.2 0-.6-.1-1.1-.1-1.7v-1.6z"/><path id="XMLID_398_" class="st0" d="M20.2 27.5c.1.1.1.3.1.4v.3c-.2.2-.4.5-.3.8 0 .2-.2.1-.3.1-.1 0-.3 0-.2-.3.1-.5.2-1 .7-1.3z"/><path id="XMLID_397_" class="st0" d="M25.1 17.3s.1 0 0 0c.1 1 .1 2 .1 3.1v3.4l-.1-.1v-1.6c0-.1 0-.2-.1-.3 0-1.4 0-2.7.1-4.1v-.4z"/><path id="XMLID_396_" class="st0" d="M23.8 27.8v1.4c0 .1-.1.2-.1.2h-.5v-.2c0-.3 0-.5.1-.8.1-.2.2-.4.4-.6h.1z"/><path id="XMLID_394_" class="st0" d="M24.7 17.1c0 .1.1.2.1.2v3.6c0 .1-.1.2-.1.2v-4z"/><path id="XMLID_393_" class="st0" d="M25.2 15.8h-.5v-1.1h.5v.3l-.2-.2c0 .1-.1.3-.1.4.1.1.2.1.3.2v.4z"/><path id="XMLID_392_" class="st0" d="M25.5 17.4v-.6c.3.1.6.2.8.3v.1c-.3.1-.5.2-.8.2z"/><path id="XMLID_391_" class="st0" d="M24.9 21.5c.1.2.1.4-.2.4-.2 0-.4-.1-.6-.1l-.1-.1.1-.1c.2-.1.4-.1.5-.1h.3z"/><path id="XMLID_388_" class="st0" d="M10.2 15.1v.6c0 .3-.1.4-.4.4 0-.2.1-.5.1-.7 0-.3.1-.4.3-.3zm-.2.6c0 .1.1.1 0 0 .1-.2.1-.4.1-.5H10v.5z"/><path id="XMLID_386_" class="st0" d="M25.2 15.6c-.1-.1-.2-.1-.3-.2v-.1c0-.1.1-.3.1-.4l.2.2v.5z"/><path id="XMLID_382_" class="st0" d="M16.8 16h-.2c.1-.2.1-.3.2-.5 0 0 .1 0 .1-.1 0 .2-.1.4-.1.6z"/><path id="XMLID_371_" class="st0" d="M14.5 17.9v-.2c.1 0 .1.1.2.1-.1 0-.2 0-.2.1z"/><path id="XMLID_368_" class="st0" d="M25.1 17c0-.1.1-.2.1-.3 0 .1 0 .2-.1.3.1 0 .1 0 0 0z"/><path id="XMLID_363_" class="st0" d="M24.9 21.5h-.2v-.1c.1 0 .1.1.2.1z"/><path id="XMLID_360_" class="st0" d="M11.3 18.9h.2-.2z"/><path id="XMLID_357_" class="st0" d="M10.5 15.1s0 .1-.1.1c0 0 0-.1-.1-.1h.2z"/><path id="XMLID_356_" class="st0" d="M25.2 16.6s-.1 0-.1-.1h.1v.1z"/><path id="XMLID_350_" class="st0" d="M14.5 18.9l.1-.1-.1.1z"/><path id="XMLID_349_" class="st0" d="M14.6 18.5l-.1-.1c.1 0 .1 0 .1.1z"/><path id="XMLID_348_" class="st0" d="M14.5 18.2v-.1.1z"/><path id="XMLID_347_" class="st0" d="M14.4 15.1h-.1.1z"/><path id="XMLID_344_" class="st0" d="M25.1 17c.1.1.1.1 0 0l.1.1s-.1 0-.1-.1z"/><path id="XMLID_337_" class="st0" d="M23.2 23.1s0 .1 0 0c0 .1 0 0 0 0z"/><path id="XMLID_336_" class="st0" d="M25.2 17.1c0-.1 0-.1 0 0z"/><path id="XMLID_331_" class="st0" d="M12.5 30.7c0-.1 0-.1 0 0 .1-.1.1-.1 0 0z"/><path id="XMLID_330_" class="st0" d="M14.6 30.6c.1 0 .1 0 0 0 .1 0 .1 0 0 0 .1 0 .1 0 0 0z"/><path id="XMLID_322_" class="st0" d="M26.1 26.1c0-.1 0-.1 0 0-.1-.1 0-.1 0 0 0-.1 0-.1 0 0z"/><path id="XMLID_311_" class="st0" d="M25.1 23.4v.3c-.2-.1 0-.2 0-.3z"/><path id="XMLID_309_" class="st0" d="M25.1 21.8c0 .1 0 .2.1.3-.1-.1-.1-.2-.1-.3z"/><path id="XMLID_307_" class="st0" d="M10 15.7v-.5h.1c0 .2 0 .4-.1.5.1.1 0 .1 0 0z"/><path id="XMLID_303_" class="st0" d="M17.2 20.4c-.4.4-.4.6-.3.9.1.3.4.4.7.4.4-.1.6-.3.6-.7 1.5 1 1.9 3.3 1 4.9-1 1.7-3.2 2.4-5 1.5-1.8-.9-2.5-3-1.8-4.8.8-2 2.8-2.9 4.8-2.2z"/></g></svg>