<svg version="1.1" id="drum" xmlns="http://www.w3.org/2000/svg" x="0" y="0" viewBox="0 0 635.1 554.5" xml:space="preserve"><style>.st0{fill:#333}</style><path id="XMLID_21_" class="st0" d="M573.5 249c0-.9.4-1.8.2-2.7.2-1.4.7-2.9.7-4.3 0-48.3-115.9-87.5-258.9-87.5s-259 39.2-259 87.5c0 1.4-.4 2.9-.1 4.3-.2.9-.8 1.8-.8 2.7v217.5c0 .1.5.1.5.2s.2.2.2.3c0 21.3 22.3 40.9 60.3 56.1V417.9c0-15.6 13-28.1 28.6-28.2 15.6.1 27.4 12.6 27.4 28.2V538c0 .7.2 1.4.1 2.1 33.3 7.4 71.9 12.3 113.9 13.8v-105c0-15.6 12.9-28.4 28.5-28.4s28.5 12.8 28.5 28.4v105c40-1.5 78.3-6.1 110.9-13.2-.7-2.5-.9-5-.9-7.7V412.9c0-15.6 13-28.1 28.6-28.2 15.6.1 27.4 12.6 27.4 28.2v111.6c40-15.4 64.3-35.5 64.3-57.6 0-.1.1-.2.1-.3 0-.1-.5-.1-.5-.2V249zm-259 61.4c-129.8.1-235-29.4-235-65.9 0-36.5 105.2-66 235-66.1 129.8-.1 235 29.4 235 65.9 0 36.5-105.2 66.1-235 66.1z"/><path id="stick-right" class="st0" d="M624.9 107.8L383.7 266c-10.4 6.8-24.6 3.9-31.4-6.5l-7.5-11.4c-6.8-10.4-3.9-24.6 6.5-31.4L592.5 58.4c10.4-6.8 24.6-3.9 31.4 6.5l7.5 11.4c6.8 10.5 3.9 24.6-6.5 31.5z"/><path id="stick-left" class="st0" d="M106.3 40.9l123.1 212c6.3 10.8 20.2 14.5 31 8.2l11.8-6.8c10.8-6.3 14.5-20.2 8.2-31l-123.1-212c-6.3-10.8-20.2-14.5-31-8.2l-11.8 6.8c-10.7 6.3-14.4 20.2-8.2 31z"/><g id="sound-wave"><g id="outer-wave"><path id="XMLID_7_" class="st0" d="M13.5 238.3c0-25.5 20.8-49.1 56.2-68.3C26.1 189 0 213.1 0 239.5c0 31.5 37.4 59.9 97.4 80.1-51.9-21.2-83.9-49.8-83.9-81.3z"/><path id="XMLID_8_" class="st0" d="M629.5 239.5c0-25.8-25.1-49.6-67.2-68.4 34.1 19 54.2 42.2 54.2 67.2 0 31-30.8 59.2-81.2 80.2 58.2-20.1 94.2-48.1 94.2-79z"/></g><g id="inner-wave"><path id="XMLID_13_" class="st0" d="M40.2 236.9c0-23 18.8-44.2 50.7-61.6C51.6 192.5 28 214.3 28 238c0 28.4 33.7 54 87.8 72.2-46.8-19.1-75.6-44.9-75.6-73.3z"/><path id="XMLID_11_" class="st0" d="M595.5 238c0-23.3-22.6-44.7-60.6-61.6 30.8 17.2 48.8 38 48.8 60.6 0 27.9-27.8 53.4-73.2 72.3 52.5-18.2 85-43.4 85-71.3z"/></g></g></svg>