<svg xmlns="http://www.w3.org/2000/svg" viewBox="0 0 30 30"><path d="M15 30c-2.3-.1-4.5-.1-6.8-.2-2.7-.2-5.1-1.2-6.7-3.6-1-1.4-1.4-3.1-1.4-4.8 0-4.3-.1-8.6 0-12.9 0-2.2.7-4.2 2.2-5.8 1.4-1.4 3-2.3 5-2.5C9.9.1 12.5 0 15.2 0c2.3 0 4.6 0 6.9.2 3 .2 5.3 1.6 6.8 4.3.7 1.3 1 2.7 1 4.1.1 3.5.1 7 .1 10.6 0 1.7 0 3.4-.5 5-1 3-3 4.8-6 5.4-1.6.4-3.3.3-4.9.3-1.3.1-2.5 0-3.6.1zm12.3-16.3c-.1-1.5-.1-3.9-.3-6.2-.2-2.3-1.5-3.8-3.8-4.4-1.4-.4-2.8-.4-4.2-.4h-8.5c-1.4 0-2.8.1-4.2.5-1.5.5-2.6 1.6-3.1 3.2-.5 1.4-.5 2.9-.5 4.3V17c0 1.9 0 3.8.3 5.7.4 2 1.5 3.5 3.5 4 1.1.3 2.3.4 3.4.5 2.3.1 4.7.1 7 .1 1.8 0 3.7 0 5.5-.3 1.7-.3 3.1-1.1 4-2.6.6-1 .7-2.2.8-3.3.1-2.2.1-4.4.1-7.4z"/><path d="M14.9 22.6c-4.2 0-7.6-3.5-7.6-7.7 0-4.3 3.5-7.7 7.7-7.7s7.7 3.5 7.6 7.7c0 4.4-3.4 7.8-7.7 7.7zM15 10c-2.8 0-5 2.2-5 5 0 2.7 2.3 5 5 5 2.8 0 5-2.2 5-5s-2.3-5-5-5zm9.8-3c0 1-.8 1.8-1.8 1.8S21.2 8 21.2 7 22 5.2 23 5.2s1.8.8 1.8 1.8z"/></svg>