<svg xmlns="http://www.w3.org/2000/svg" viewBox="0 0 32 32"><path d="M11.8 14.9c.4.2.6.6.6 1.1 0 .5-.2.8-.6 1.1l-10 5.8c-.1.1-.3.1-.5.1-.3 0-.6-.1-.9-.3-.3-.4-.4-.7-.4-1V10.1c0-.3.1-.6.4-.8.3-.2.6-.4.9-.4.2 0 .3 0 .5.1l10 5.9zm13.4 0c.4.2.5.6.5 1.1 0 .5-.2.9-.5 1.1l-10 5.8c-.1.1-.3.1-.5.1-.3 0-.6-.1-.9-.4-.3-.2-.4-.5-.4-.8V10.1c0-.3.1-.6.4-.8.3-.2.6-.3.9-.3.2 0 .4 0 .5.1l10 5.8zm6.8 11c0 .4-.1.8-.4 1-.3.3-.6.4-1 .4H30c-.4 0-.8-.1-1.1-.4-.3-.3-.4-.6-.4-1.1V6.1c0-.4.1-.8.4-1.1.3-.3.6-.4 1.1-.4h.5c.4 0 .7.1 1 .4.3.3.4.6.4 1v19.9z" fill="#f2f2f2"/></svg>