<svg version="1.1" id="Layer_1" xmlns="http://www.w3.org/2000/svg" x="0" y="0" viewBox="0 0 32 32" xml:space="preserve"><style>.st0{fill:#f2f2f2}</style><path id="XMLID_3_" class="st0" d="M0 16V3.6C0 1.9 1 .6 2.5.2c.4-.1.7-.2 1.1-.2h6.5c1.5 0 2.6.7 3.2 2 .2.5.3 1.1.3 1.6V28c0 .6-.1 1.3-.3 1.9-.6 1.4-1.7 2-3.2 2H3.5c-2 0-3.6-1.6-3.6-3.6.2-4 .1-8.2.1-12.3z"/><path id="XMLID_2_" class="st0" d="M32 16v12.8c0 1.4-1.3 2.9-2.7 3.1-.4.1-.8.1-1.1.1H22c-2 0-3.7-1.4-3.7-3.5V3.7c0-.9.2-1.8.8-2.5.7-.8 1.6-1.2 2.6-1.2h6.8c1.7 0 3.1 1.1 3.4 2.7.1.3.1.6.1.9V16z"/></svg>