<svg xmlns="http://www.w3.org/2000/svg" viewBox="0 0 32 32"><path d="M30.2 9.1c.1-.1.3-.1.5-.1.3 0 .6.1.9.3.3.2.4.5.4.8v11.6c0 .3-.1.6-.4.8-.3.2-.6.3-.9.3-.2 0-.4 0-.5-.1l-10-5.8c-.4-.2-.6-.6-.6-1.1 0-.5.2-.8.6-1.1l10-5.6zm-13.3 0c.1-.1.3-.2.5-.2.3 0 .6.1.9.3.3.2.4.5.4.8v11.6c0 .3-.1.6-.4.8-.3.2-.6.4-.9.4-.2 0-.4 0-.5-.1L6.8 17c-.4-.2-.5-.6-.5-1.1s.2-.9.5-1.1l10.1-5.7zM0 6.1c0-.4.1-.8.4-1 .3-.3.6-.4 1-.4H2c.4 0 .8.1 1.1.4.3.3.4.6.4 1.1V26c0 .4-.1.8-.4 1.1-.3.3-.6.4-1.1.4h-.5c-.4 0-.7-.1-1-.4-.3-.3-.4-.6-.4-1L0 6.1z" fill="#f2f2f2"/></svg>